<?xml version="1.0" standalone="no"?>
<!DOCTYPE svg PUBLIC "-//W3C//DTD SVG 20010904//EN"
 "http://www.w3.org/TR/2001/REC-SVG-20010904/DTD/svg10.dtd">
<svg version="1.0" xmlns="http://www.w3.org/2000/svg"
 width="676.000000pt" height="292.000000pt" viewBox="0 0 676.000000 292.000000"
 preserveAspectRatio="xMidYMid meet">

<g transform="translate(0.000000,292.000000) scale(0.100000,-0.100000)"
fill="#000000" stroke="none">
<path d="M2867 2073 c-4 -3 -7 -19 -7 -34 0 -20 -8 -34 -26 -46 l-26 -17 23
-9 c13 -6 27 -11 31 -11 3 -1 10 -4 14 -8 16 -17 22 -6 17 32 -3 24 -1 46 6
54 8 10 9 16 1 21 -6 3 -8 11 -5 16 7 10 -18 13 -28 2z"/>
<path d="M2415 1998 c-16 -12 -42 -33 -58 -47 l-27 -25 27 -12 c34 -14 43 -10
43 19 0 11 14 36 32 54 36 37 28 43 -17 11z"/>
<path d="M2420 1936 c-5 -15 -10 -43 -10 -62 0 -27 5 -37 25 -46 22 -10 32 -8
63 10 20 11 37 27 37 34 0 7 -16 22 -35 35 -19 12 -43 30 -52 39 -16 16 -18
15 -28 -10z"/>
<path d="M2234 1790 c-50 -17 -99 -39 -108 -49 -17 -18 -17 -20 4 -41 20 -20
29 -22 77 -16 32 4 62 2 74 -5 16 -8 25 -7 40 7 23 21 25 44 3 44 -14 0 -13 5
5 36 38 64 34 65 -95 24z"/>
<path d="M3965 1730 c-9 -15 -10 -14 60 -43 34 -14 89 -29 123 -33 34 -3 59
-10 56 -15 -3 -5 -13 -9 -22 -9 -10 0 -26 -13 -35 -30 -10 -16 -22 -30 -28
-30 -5 0 -40 20 -77 45 -76 51 -190 93 -276 102 -53 6 -58 4 -54 -13 2 -10 28
-35 58 -55 30 -20 76 -59 102 -87 43 -46 88 -75 88 -56 0 4 -9 17 -20 29 -17
18 -19 30 -14 63 6 39 24 50 24 15 0 -9 10 -37 22 -61 17 -36 19 -48 9 -63
-21 -35 8 -19 40 21 24 30 40 40 61 40 36 0 36 -11 -2 -34 -40 -23 -110 -96
-110 -114 0 -10 7 -12 26 -8 l26 7 -7 -61 c-6 -55 -5 -63 15 -80 13 -11 26
-20 30 -20 16 0 31 30 25 50 -5 16 -2 20 14 20 17 0 21 -6 21 -32 0 -35 15
-106 23 -115 12 -11 47 19 47 42 0 33 10 55 25 55 11 0 11 -8 4 -32 -5 -18 -9
-36 -9 -40 0 -15 27 -8 45 12 16 18 17 30 10 117 -10 121 -11 201 -1 210 3 4
14 -1 24 -11 16 -17 16 -19 -5 -33 -50 -34 -24 -48 115 -60 69 -6 72 -5 72 16
0 11 -4 21 -10 21 -5 0 -10 14 -10 31 0 26 -3 30 -17 24 -10 -4 -31 -11 -47
-16 -28 -8 -28 -8 -21 29 4 20 11 42 17 49 10 13 3 33 -13 33 -5 0 -9 -9 -9
-20 0 -10 -6 -23 -14 -27 -7 -4 -13 -19 -12 -32 0 -13 -5 -26 -11 -28 -9 -3
-11 4 -7 27 7 32 -14 180 -25 180 -19 -1 -32 -20 -26 -39 8 -26 -6 -28 -22 -2
-9 15 -29 20 -95 26 -46 4 -90 13 -98 20 -22 19 -77 28 -85 15z"/>
<path d="M4430 1660 c0 -6 21 -20 46 -33 l46 -22 -7 -42 -6 -43 35 0 c19 0 41
-3 50 -6 28 -11 18 24 -15 48 -25 19 -30 28 -27 58 3 33 1 35 -29 35 -17 0
-35 3 -39 8 -11 11 -54 9 -54 -3z"/>
<path d="M2543 1563 c-12 -2 -27 -10 -33 -18 -9 -11 -7 -16 10 -25 12 -6 20
-16 18 -22 -2 -6 -42 -25 -88 -43 -97 -37 -112 -55 -48 -56 42 -1 41 -1 -42
-30 -47 -16 -96 -38 -110 -49 -23 -17 -23 -19 -7 -26 11 -4 38 3 70 19 29 14
76 35 105 46 56 20 245 123 275 149 19 17 23 47 7 57 -6 3 -22 -7 -36 -24 -32
-39 -45 -39 -66 -1 -9 17 -21 29 -25 29 -4 -1 -18 -4 -30 -6z"/>
<path d="M1644 1480 c-16 -16 -38 -30 -50 -30 -24 0 -93 -44 -112 -71 -7 -11
-28 -26 -45 -35 -18 -9 -42 -26 -55 -38 l-23 -21 -19 25 c-11 14 -20 31 -20
38 0 16 0 16 -55 -8 -60 -26 -202 -156 -210 -192 -4 -15 -15 -30 -26 -33 -10
-4 -33 -24 -51 -46 -17 -21 -40 -39 -50 -39 -24 0 -24 2 18 60 33 46 34 50 15
50 -27 0 -144 -32 -194 -54 -78 -32 -161 -40 -301 -26 l-131 12 -84 -57 c-46
-31 -90 -54 -98 -51 -17 7 -109 -27 -134 -50 -18 -16 -19 -39 -19 -466 l0
-448 3380 0 3380 0 0 344 0 344 -82 11 c-46 5 -117 9 -158 8 -54 -1 -98 5
-155 21 -64 19 -119 25 -272 32 -171 8 -207 13 -335 45 -126 33 -179 54 -253
101 -30 19 -48 4 -35 -30 7 -20 27 -35 77 -58 64 -29 67 -29 81 -11 13 17 14
17 10 -2 -5 -32 -65 -38 -245 -25 -124 8 -180 17 -235 36 -120 40 -137 60 -99
112 29 42 71 151 60 158 -6 3 -16 0 -24 -6 -11 -9 -25 -6 -65 17 -40 22 -58
41 -85 89 -30 54 -38 61 -65 61 -42 0 -36 -28 8 -41 43 -12 41 -30 -3 -23 -24
4 -35 2 -35 -6 0 -7 40 -51 90 -99 67 -64 95 -85 108 -81 11 5 6 -7 -16 -34
-17 -22 -32 -46 -32 -53 0 -7 -11 -3 -28 9 l-28 20 -24 -40 c-21 -32 -30 -39
-57 -39 -18 0 -33 4 -33 8 0 5 -6 16 -13 26 -12 16 -19 16 -82 5 -39 -6 -101
-27 -138 -46 -67 -33 -71 -34 -150 -27 -96 8 -118 15 -166 53 -33 26 -62 35
-98 32 -8 -1 -13 -14 -12 -33 1 -18 3 -25 6 -15 5 20 14 22 31 5 18 -18 15
-27 -10 -26 -57 1 -84 14 -150 71 -117 102 -113 100 -145 84 -15 -8 -54 -20
-85 -27 -36 -7 -58 -17 -58 -25 0 -12 -21 -25 -41 -25 -5 0 -9 16 -9 35 0 19
-1 35 -2 35 -40 -2 -118 -37 -157 -69 -28 -23 -70 -49 -94 -57 -43 -14 -48
-14 -86 6 -33 16 -41 26 -41 48 0 23 7 30 44 45 40 16 86 48 86 58 0 2 -21 4
-47 4 -27 0 -61 4 -76 8 -26 7 -28 6 -22 -12 9 -29 -21 -80 -51 -87 -14 -4
-28 -4 -31 0 -10 9 18 36 38 36 11 0 19 4 19 9 0 15 -39 20 -76 9 -30 -8 -48
-5 -106 16 -70 26 -88 27 -88 0 0 -8 -4 -14 -10 -14 -14 0 -12 -76 2 -100 20
-31 0 -40 -115 -52 l-105 -11 -61 54 c-44 39 -60 59 -59 76 3 27 6 28 29 7 10
-9 26 -14 35 -10 15 6 16 8 0 24 -24 28 -20 35 19 30 30 -3 34 -1 30 13 -3 10
-1 20 5 24 17 10 1 25 -27 25 -18 0 -24 4 -20 15 4 8 2 17 -4 20 -15 10 -22
-22 -9 -45 6 -12 8 -25 4 -28 -4 -4 -9 -1 -11 6 -3 6 -12 12 -20 12 -10 0 -13
5 -8 18 4 9 10 26 12 37 5 18 4 18 -11 -2 -15 -20 -26 -23 -83 -23 -60 0 -71
-4 -139 -46 -68 -43 -75 -45 -95 -31 -21 15 -49 13 -49 -4 0 -5 7 -9 15 -9 19
0 19 -3 -3 -43 -15 -29 -21 -32 -40 -24 -23 11 -28 22 -13 31 4 3 1 35 -7 70
l-16 65 47 54 c25 29 70 71 101 92 30 20 57 44 60 51 7 17 14 18 -85 -7 -103
-26 -178 -60 -224 -103 -41 -39 -49 -74 -12 -54 12 7 31 20 41 28 18 14 19 13
13 -3 -4 -10 -7 -21 -7 -23 0 -2 -7 -4 -15 -4 -8 0 -15 -7 -15 -15 0 -8 -4
-15 -9 -15 -5 0 -11 -10 -15 -23 -5 -23 -41 -67 -54 -67 -4 0 -17 18 -30 40
l-22 39 51 48 c61 57 76 81 55 89 -8 3 -23 -3 -34 -14 -10 -10 -56 -33 -101
-51 -92 -35 -91 -34 -91 -23 0 5 17 17 38 26 50 23 91 58 75 63 -7 3 -13 13
-13 24 0 10 -2 19 -4 19 -8 0 -172 -94 -189 -108 -9 -8 -20 -13 -23 -10 -3 3
42 52 100 108 59 57 106 109 106 115 0 7 -7 19 -16 26 -14 11 -18 11 -28 -3
-6 -8 -49 -41 -96 -73 -111 -75 -220 -164 -220 -180 0 -6 -9 -20 -20 -30 -11
-10 -20 -13 -20 -7 0 6 4 13 10 17 5 3 7 11 4 18 -2 7 16 28 41 47 74 55 37
53 -75 -4 -77 -39 -135 -61 -218 -80 -62 -14 -115 -26 -119 -26 -20 0 23 23
109 59 54 22 118 54 143 71 36 25 49 29 60 20 10 -8 17 -6 29 11 14 20 13 24
-10 54 -13 17 -24 35 -24 39 0 10 61 99 74 109 6 4 23 10 38 13 21 5 26 11 24
32 -4 37 -19 37 -52 2z m-370 -256 c19 -7 -13 -39 -99 -96 l-60 -41 70 72 c38
39 70 71 71 71 1 0 9 -3 18 -6z m1026 -2 c0 -5 -13 -18 -30 -30 -35 -26 -39
-18 -8 15 22 23 38 30 38 15z m-700 -102 c0 -5 -5 -10 -11 -10 -5 0 -7 5 -4
10 3 6 8 10 11 10 2 0 4 -4 4 -10z m-504 -45 c-24 -18 -33 -19 -42 -3 -4 7 -3
8 4 4 7 -4 20 -2 29 3 26 15 31 13 9 -4z m1109 5 c-3 -5 -11 -10 -16 -10 -6 0
-7 5 -4 10 3 6 11 10 16 10 6 0 7 -4 4 -10z m-705 -4 c0 -2 -8 -10 -17 -17
-16 -13 -17 -12 -4 4 13 16 21 21 21 13z m90 -4 c0 -20 -80 -69 -140 -87 -22
-6 -23 -6 -10 8 17 18 130 87 142 87 4 0 8 -4 8 -8z m650 -12 c0 -5 -4 -10
-10 -10 -5 0 -10 5 -10 10 0 6 5 10 10 10 6 0 10 -4 10 -10z m-781 -14 c-2 -2
-47 -34 -99 -71 l-95 -67 45 47 c25 26 68 58 95 71 51 23 62 27 54 20z m-853
-21 c-21 -16 -32 -13 -21 4 3 6 14 11 23 11 15 -1 15 -2 -2 -15z m1607 -10
c-6 -17 -25 -15 -31 3 -2 7 5 12 17 12 14 0 19 -5 14 -15z m-223 -4 c16 -4
-30 -21 -57 -21 -17 0 -35 -5 -38 -10 -7 -12 -25 -4 -25 11 0 5 9 9 20 9 11 0
20 4 20 8 0 7 55 9 80 3z m148 -33 c-2 -14 -17 -31 -40 -43 -24 -13 -38 -27
-38 -39 0 -16 3 -17 12 -8 7 7 20 12 29 12 10 0 46 23 80 52 l62 51 -6 -31
c-5 -24 -3 -32 8 -32 8 0 15 -4 15 -9 0 -5 -28 -14 -61 -20 -37 -6 -81 -23
-110 -42 -44 -28 -50 -29 -70 -16 -11 8 -28 25 -36 37 -21 30 0 54 39 46 24
-5 35 1 64 29 40 40 57 44 52 13z m-1551 -18 c-30 -24 -37 -25 -37 -6 0 13 12
18 54 25 5 0 -3 -8 -17 -19z m1035 -19 c-4 -11 -24 -31 -45 -45 l-38 -26 28
37 c40 55 70 72 55 34z m1503 -31 c3 -5 -9 -17 -27 -26 l-33 -16 25 25 c30 31
27 29 35 17z"/>
<path d="M3000 1482 c0 -4 17 -25 39 -46 32 -31 44 -37 72 -34 40 4 46 28 9
38 -14 4 -43 17 -65 29 -43 23 -55 26 -55 13z"/>
<path d="M1935 1474 c-5 -2 -35 -10 -65 -19 -42 -11 -58 -22 -67 -42 -7 -15
-11 -28 -9 -30 2 -2 21 7 41 22 21 14 46 25 56 25 9 0 24 3 33 6 27 10 18 -12
-9 -24 -22 -10 -24 -14 -13 -26 13 -14 24 -11 62 18 18 15 18 16 0 44 -11 16
-23 28 -29 26z"/>
<path d="M4722 1438 c2 -17 24 -34 83 -65 44 -23 86 -42 93 -43 29 0 8 21 -55
55 -37 21 -74 46 -81 56 -19 27 -44 25 -40 -3z"/>
<path d="M4450 1339 c-11 -27 -17 -30 -42 -25 -15 3 -28 1 -28 -3 0 -26 15
-41 40 -41 21 0 34 -10 55 -40 15 -22 31 -40 35 -40 4 0 43 -5 87 -11 72 -10
89 -8 162 11 44 12 81 26 81 31 0 5 -20 9 -45 9 -57 0 -59 18 -2 22 35 2 43 7
45 26 2 14 -3 25 -15 29 -10 4 -26 17 -36 30 -22 27 -35 29 -44 7 -4 -10 6
-26 28 -45 l34 -29 -30 6 c-16 3 -49 19 -72 35 -39 28 -46 29 -82 19 -36 -9
-46 -8 -90 15 -28 14 -54 25 -59 25 -5 0 -15 -14 -22 -31z"/>
<path d="M5261 1200 l-43 -16 59 -27 c33 -15 90 -38 128 -52 l67 -26 -26 31
c-14 18 -24 35 -21 39 8 15 -40 50 -81 59 -31 7 -50 5 -83 -8z"/>
<path d="M1020 1170 c-8 -5 -12 -11 -9 -14 3 -3 14 1 25 9 21 16 8 20 -16 5z"/>
</g>
</svg>
