<?xml version="1.0" standalone="no"?>
<!DOCTYPE svg PUBLIC "-//W3C//DTD SVG 20010904//EN"
 "http://www.w3.org/TR/2001/REC-SVG-20010904/DTD/svg10.dtd">
<svg version="1.0" xmlns="http://www.w3.org/2000/svg"
 width="676.000000pt" height="292.000000pt" viewBox="0 0 676.000000 292.000000"
 preserveAspectRatio="xMidYMid meet">

<g transform="translate(0.000000,292.000000) scale(0.100000,-0.100000)"
fill="#000000" stroke="none">
<path d="M2388 1975 c-53 -39 -58 -50 -26 -58 28 -8 38 -1 38 25 0 12 10 32
22 45 29 32 21 29 -34 -12z"/>
<path d="M1651 1476 c-13 -13 -39 -26 -62 -30 -22 -3 -42 -13 -45 -21 -4 -8
-12 -15 -18 -15 -7 0 -19 -12 -26 -26 -8 -14 -30 -34 -50 -44 -19 -10 -44 -27
-54 -39 -34 -37 -59 -24 -80 41 -4 15 -11 14 -64 -12 -33 -16 -69 -42 -80 -58
-12 -16 -37 -40 -56 -53 -34 -23 -62 -72 -51 -89 3 -4 -9 -13 -25 -20 -17 -7
-44 -30 -61 -51 -20 -26 -39 -39 -55 -39 -32 0 -30 11 12 70 20 27 32 50 27
50 -19 -1 -152 -39 -201 -59 -29 -11 -61 -21 -72 -21 -10 0 -25 -6 -32 -13 -7
-7 -30 -23 -50 -36 -44 -26 -48 -34 -13 -25 14 3 25 2 25 -3 0 -11 -68 -73
-81 -73 -12 0 -11 17 1 25 6 3 10 18 10 33 0 32 27 68 55 75 11 3 -4 5 -33 6
-29 0 -96 6 -148 13 -89 11 -95 10 -117 -9 -44 -41 -138 -93 -166 -93 -33 0
-98 -25 -123 -48 -17 -14 -18 -49 -18 -464 l0 -448 3380 0 3380 0 0 344 0 343
-62 8 c-35 4 -99 7 -143 6 -81 -2 -107 2 -220 34 -39 11 -128 20 -252 25 -171
8 -208 13 -335 45 -97 25 -162 48 -201 71 -32 19 -63 34 -68 34 -19 0 -8 -39
17 -59 38 -30 117 -58 122 -43 6 19 22 14 22 -7 0 -29 -79 -35 -262 -22 -161
12 -283 42 -330 81 l-23 19 19 33 c28 46 62 119 71 146 6 20 4 22 -19 16 -44
-11 -116 39 -154 107 -29 52 -36 59 -64 59 -25 0 -28 -3 -19 -14 7 -8 23 -17
36 -20 35 -9 31 -26 -5 -26 -16 0 -30 -4 -30 -9 0 -5 38 -45 85 -89 64 -61 89
-79 105 -75 27 7 25 -6 -10 -47 -17 -19 -30 -40 -30 -47 0 -17 -20 -16 -44 2
-18 13 -21 12 -43 -20 -30 -44 -76 -49 -108 -10 -20 24 -21 24 -85 11 -36 -7
-94 -27 -129 -45 -63 -32 -66 -33 -155 -26 -106 9 -125 15 -177 56 -26 21 -47
29 -66 27 -30 -3 -45 -28 -16 -28 19 0 43 -18 43 -32 0 -13 -78 -9 -113 6 -18
8 -65 44 -106 81 -58 53 -78 65 -95 60 -11 -4 -49 -14 -84 -22 -40 -10 -66
-22 -73 -34 -5 -10 -19 -19 -29 -19 -16 0 -20 7 -20 30 0 22 -5 30 -18 30 -39
0 -84 -21 -136 -63 -71 -58 -134 -76 -182 -54 -18 9 -40 14 -49 11 -17 -7 -21
11 -4 22 6 3 8 16 5 28 -4 18 3 25 49 45 30 13 60 29 66 37 9 12 5 14 -24 14
-19 0 -49 3 -66 6 -27 6 -31 4 -31 -15 0 -25 -17 -62 -34 -73 -6 -4 -21 -8
-34 -8 -31 0 -26 34 6 38 12 2 22 8 22 14 0 7 -20 8 -59 4 -46 -5 -69 -3 -110
14 -61 24 -81 25 -81 6 0 -8 -7 -16 -15 -20 -22 -8 -19 -63 5 -96 l21 -29 -38
-10 c-21 -5 -79 -13 -130 -17 l-92 -6 -70 62 c-68 60 -89 89 -56 76 9 -3 15 0
15 9 0 20 10 19 36 -6 12 -11 25 -16 28 -11 3 5 -1 15 -9 22 -24 20 -18 30 19
30 28 0 34 4 38 25 6 29 2 35 -24 35 -10 0 -18 7 -18 16 0 8 -5 12 -11 9 -7
-5 -5 -15 6 -32 21 -31 12 -40 -21 -23 -15 8 -24 20 -21 30 3 13 -7 14 -72 10
-68 -5 -83 -10 -141 -48 -71 -45 -80 -48 -110 -30 -10 7 -23 9 -27 5 -4 -5 -1
-12 6 -16 11 -7 11 -15 0 -45 -13 -36 -23 -42 -47 -27 -23 14 -152 -17 -202
-49 -26 -17 -54 -30 -62 -30 -15 0 -78 57 -78 71 0 15 31 30 58 28 22 -3 37 5
61 29 35 34 78 45 67 16 -3 -9 -6 -20 -6 -25 0 -5 -18 -18 -40 -29 -22 -11
-40 -25 -40 -30 0 -19 64 11 115 55 63 53 77 56 69 15 -5 -23 -3 -30 9 -30 30
0 40 27 28 74 -6 25 -11 54 -11 66 0 31 64 105 137 157 35 24 63 48 63 52 0
10 -138 -24 -192 -48 -54 -23 -124 -74 -137 -100 -19 -34 21 -14 88 45 59 51
81 64 81 47 0 -14 -14 -27 -77 -78 -35 -28 -63 -53 -63 -57 0 -5 14 -8 30 -8
19 0 33 -6 37 -16 7 -20 -20 -68 -41 -72 -23 -5 -20 21 4 36 29 18 24 29 -15
34 -23 3 -35 0 -35 -8 0 -20 -42 -62 -69 -69 -19 -6 -23 -4 -18 9 3 8 -1 29
-11 46 l-17 29 59 60 c35 36 56 64 51 71 -5 8 -12 6 -25 -8 -17 -18 -146 -73
-208 -89 -38 -9 -19 13 36 42 70 36 82 48 75 73 -3 12 -8 22 -11 22 -10 0
-171 -91 -177 -100 -8 -12 -35 -13 -35 -1 0 4 47 55 105 112 93 91 104 105 90
118 -13 13 -17 13 -32 -2 -10 -10 -61 -47 -113 -84 -108 -75 -200 -151 -200
-165 0 -21 -92 -100 -142 -122 -67 -31 -98 -40 -98 -29 0 8 93 70 147 97 46
23 51 37 11 30 l-33 -5 31 18 c42 24 134 96 130 101 -2 2 -48 -19 -102 -46
-69 -35 -134 -57 -214 -76 -63 -15 -123 -29 -132 -32 -10 -3 -18 -1 -18 4 0 5
46 28 103 52 56 23 126 57 156 77 31 20 61 33 72 30 33 -9 44 19 20 52 -29 40
-26 58 15 114 23 32 44 50 64 54 23 4 30 11 30 29 0 30 -11 30 -39 0z m-369
-247 c20 -11 19 -12 -13 -42 -34 -31 -206 -147 -218 -147 -3 0 -7 12 -7 26 -2
18 2 24 13 20 23 -9 64 18 132 88 34 36 65 66 68 66 2 0 14 -5 25 -11z m232
-150 c-31 -34 -284 -208 -284 -195 0 16 140 135 182 154 28 13 62 32 76 42 33
26 50 25 26 -1z m419 -61 c3 -10 7 -10 17 -1 10 9 18 9 33 1 16 -8 17 -12 6
-19 -8 -5 -26 -9 -42 -9 -15 0 -36 -6 -47 -12 -17 -11 -22 -10 -30 2 -7 11 -4
16 11 18 11 2 23 10 26 18 6 17 20 18 26 2z m-1473 -100 c-16 -34 -39 -71 -51
-82 -12 -12 -19 -16 -17 -11 18 44 62 132 70 143 26 31 25 7 -2 -50z m1186 46
c-9 -8 -16 -24 -16 -35 0 -10 -4 -19 -9 -19 -5 0 -32 -16 -60 -35 -28 -20 -51
-33 -51 -29 0 3 16 24 35 47 19 22 35 45 35 49 0 8 55 37 73 38 5 0 1 -7 -7
-16z m1483 -48 c10 -12 7 -18 -18 -30 -43 -23 -75 -21 -38 2 15 9 27 22 27 29
0 17 15 16 29 -1z"/>
<path d="M3010 1471 c0 -5 16 -23 35 -40 39 -34 95 -43 95 -16 0 8 -8 15 -18
15 -9 0 -34 11 -54 25 -38 26 -58 31 -58 16z"/>
<path d="M1866 1452 c-32 -11 -52 -25 -57 -39 l-8 -22 32 19 c39 22 107 35
107 21 0 -6 -9 -15 -20 -21 -11 -6 -18 -15 -15 -21 9 -13 17 -11 44 12 22 18
23 22 11 44 -15 29 -27 30 -94 7z"/>
<path d="M5385 1180 c10 -11 23 -20 28 -20 6 0 2 9 -8 20 -10 11 -23 20 -28
20 -6 0 -2 -9 8 -20z"/>
</g>
</svg>
