<?xml version="1.0" encoding="UTF-8" standalone="no"?>
<!-- Created with Inkscape (http://www.inkscape.org/) -->

<svg
   width="83.760117mm"
   height="96.830383mm"
   viewBox="0 0 83.760117 96.830383"
   version="1.1"
   id="svg1"
   xml:space="preserve"
   inkscape:export-filename="prop.png"
   inkscape:export-xdpi="600"
   inkscape:export-ydpi="600"
   inkscape:version="1.3.2 (091e20e, 2023-11-25, custom)"
   sodipodi:docname="PropagandaFinal.svg"
   xmlns:inkscape="http://www.inkscape.org/namespaces/inkscape"
   xmlns:sodipodi="http://sodipodi.sourceforge.net/DTD/sodipodi-0.dtd"
   xmlns="http://www.w3.org/2000/svg"
   xmlns:svg="http://www.w3.org/2000/svg"><sodipodi:namedview
     id="namedview1"
     pagecolor="#ffffff"
     bordercolor="#000000"
     borderopacity="0.25"
     inkscape:showpageshadow="2"
     inkscape:pageopacity="0.0"
     inkscape:pagecheckerboard="0"
     inkscape:deskcolor="#d1d1d1"
     inkscape:document-units="mm"
     inkscape:zoom="0.69219276"
     inkscape:cx="210.9239"
     inkscape:cy="611.82379"
     inkscape:window-width="1920"
     inkscape:window-height="991"
     inkscape:window-x="-9"
     inkscape:window-y="-9"
     inkscape:window-maximized="1"
     inkscape:current-layer="layer1" /><defs
     id="defs1" /><g
     inkscape:label="Layer 1"
     inkscape:groupmode="layer"
     id="layer1"
     transform="translate(-262.56727,85.126028)"><g
       transform="matrix(0.03483671,-0.02317875,-0.02317875,-0.03483671,293.40654,8.8873411)"
       fill="#000000"
       stroke="none"
       id="g2-1-9-7"
       style="fill:#df19fd;fill-opacity:1"
       inkscape:export-filename="..\Competencia2024\GeingerLogo.svg"
       inkscape:export-xdpi="600"
       inkscape:export-ydpi="600"><path
         d="m 778,1623 c -12,-14 -17,-54 -21,-173 -3,-85 -13,-204 -23,-264 -14,-92 -15,-116 -4,-160 36,-144 37,-161 29,-305 -5,-79 -15,-182 -24,-229 -9,-47 -14,-96 -10,-109 13,-52 94,-56 114,-6 19,47 41,212 48,350 l 6,131 70,18 c 38,10 71,23 72,29 14,54 30,95 37,95 11,0 10,-11 -7,-40 -22,-38 -18,-74 10,-100 25,-23 27,-24 102,-11 135,23 343,78 363,96 42,38 12,125 -43,125 -12,0 -67,-11 -121,-25 -54,-14 -104,-25 -111,-25 -8,0 -14,19 -17,49 -3,27 -14,68 -26,92 -12,24 -20,44 -19,45 1,1 54,18 117,39 63,20 122,43 130,51 23,22 18,83 -9,105 -13,11 -32,19 -43,19 -11,0 -104,-28 -206,-61 -195,-65 -232,-86 -232,-135 0,-25 50,-84 71,-84 5,0 9,-5 9,-11 0,-14 -48,15 -73,44 -16,18 -21,19 -58,8 -23,-7 -43,-11 -45,-9 -1,2 1,33 6,68 5,36 13,129 16,207 6,123 5,145 -10,167 -20,31 -74,36 -98,9 z"
         id="path1-0-8-2"
         style="fill:#df19fd;fill-opacity:1" /><path
         d="m 524,1069 c -44,-12 -90,-69 -99,-118 -9,-54 23,-122 71,-152 29,-17 46,-20 91,-17 50,4 60,9 95,46 34,37 38,47 38,94 0,68 -27,113 -83,138 -46,21 -66,23 -113,9 z"
         id="path2-9-6-1"
         style="fill:#df19fd;fill-opacity:1" /></g><path
       d="m 339.27373,-84.506339 c -1.8119,1.36048 -1.96545,1.86025 -2.08829,6.91344 l -0.0922,4.66445 -2.0576,0.5553 c -1.10554,0.30542 -15.84646,4.41458 -32.73706,9.13458 l -30.7102,8.55153 -0.18425,-4.19246 c -0.15355,-4.41459 -0.42994,-5.41412 -1.65834,-5.99719 -1.07488,-0.49975 -2.30328,0 -3.37815,1.36049 l -0.92129,1.19388 -0.0921,4.66447 -0.0921,4.66448 -0.89061,0.30539 c -2.4261,0.74967 -2.39539,4.52563 0.0308,4.05366 l 0.8906,-0.19435 v 29.347271 c 0,31.179799 -0.0308,30.568959 1.38198,31.068749 1.71975,0.58302 3.86948,-1.08286 4.42227,-3.4428599 0.24565,-0.97177 0.3378,-10.35624 0.3378,-30.0691801 v -28.68093 l 32.64492,-9.07907 c 17.93477,-4.99765 32.70634,-9.07905 32.82919,-9.07905 0.12277,0 0.27638,13.24377 0.30712,29.40281 l 0.0922,29.4306001 0.6449,0.7774 c 0.85988,1.02733 2.54896,1.05506 3.50097,0.0556 1.81189,-1.9157501 1.68906,0.41647 1.78117,-31.9016401 l 0.0921,-29.56943 1.28983,-0.5553 c 1.04414,-0.44423 1.35124,-0.74963 1.56623,-1.58254 0.21496,-0.72191 0.18425,-1.2772 -0.0614,-1.77695 -0.33785,-0.63862 -0.49141,-0.69413 -1.59697,-0.52756 l -1.2284,0.19435 v -3.91482 c 0,-4.19247 -0.33781,-5.55293 -1.47407,-6.10823 -0.95204,-0.47201 -1.65837,-0.36095 -2.54898,0.33317 z"
       id="path1-27-1-9-4"
       style="fill:#00ff9f;fill-opacity:1;stroke:none;stroke-width:0.0292004" /></g><style
     type="text/css"
     id="style1">
	.stone_een{fill:#0B1719;}
	.st0{fill:#0B1719;}
</style></svg>
